
<svg xmlns="http://www.w3.org/2000/svg" xmlns:xlink="http://www.w3.org/1999/xlink" width="500" zoomAndPan="magnify" viewBox="0 0 375 374.999991" height="500" preserveAspectRatio="xMidYMid meet" version="1.0"><defs><clipPath id="d8d4721037"><path d="M 0.570312 64.359375 L 374.070312 64.359375 L 374.070312 310.359375 L 0.570312 310.359375 Z M 0.570312 64.359375 " clip-rule="nonzero"/></clipPath></defs><rect x="-37.5" width="450" fill="#ffffff" y="-37.499999" height="449.999989" fill-opacity="1"/><rect x="-37.5" width="450" fill="#ffffff" y="-37.499999" height="449.999989" fill-opacity="1"/><rect x="-37.5" width="450" fill="#130f30" y="-37.499999" height="449.999989" fill-opacity="1"/><g clip-path="url(#d8d4721037)"><path fill="#6366f1" d="M 149.0625 64.390625 L 149.0625 159.273438 L 57.320312 159.273438 L 57.320312 64.390625 L 0.570312 64.390625 L 0.570312 310.609375 L 57.320312 310.609375 L 57.320312 215.351562 L 129.621094 215.351562 L 246.339844 64.390625 Z M 313.183594 216.546875 C 315.351562 215.5 317.59375 214.453125 319.765625 213.332031 C 330.230469 207.875 338.90625 199.726562 345.710938 189.183594 C 352.664062 178.339844 356.175781 164.359375 356.175781 147.460938 C 356.175781 122.414062 347.878906 102 331.429688 86.820312 C 317.148438 73.664062 298.753906 66.183594 276.546875 64.691406 L 233.925781 119.871094 L 265.03125 119.871094 C 276.472656 119.871094 284.996094 122.488281 291.277344 127.796875 C 294.789062 130.785156 299.425781 136.019531 299.425781 147.535156 C 299.425781 154.339844 298.082031 159.347656 295.3125 162.339844 C 291.875 166.226562 287.6875 168.84375 282.601562 170.339844 C 276.171875 172.210938 269.816406 173.179688 263.6875 173.179688 L 206.039062 173.179688 L 206.039062 155.835938 L 149.0625 229.632812 L 149.0625 310.609375 L 206.113281 310.609375 L 206.113281 228.585938 L 255.085938 228.585938 L 306.753906 310.535156 L 374.421875 310.535156 Z M 313.183594 216.546875 " fill-opacity="1" fill-rule="nonzero"/></g></svg>